<svg width="64" height="83" viewBox="0 0 64 83" fill="none" xmlns="http://www.w3.org/2000/svg">
<path d="M46 82.8266V58.1734C46 58.0578 46.0565 58 46.1695 58H48.2547C48.3677 58 48.4242 58.0578 48.4242 58.1734V69.7892C48.4242 69.847 48.4411 69.8874 48.475 69.9105C48.5203 69.9221 48.5711 69.9048 48.6276 69.8585L60.3247 58.1734C60.4377 58.0578 60.5451 58 60.6468 58H63.3931C63.4383 58 63.4666 58.0231 63.4779 58.0693C63.5005 58.104 63.4948 58.1387 63.4609 58.1734L54.3914 67.3793C54.2784 67.4949 54.2671 67.6221 54.3575 67.7607L63.9695 82.8266C64.0034 82.8729 64.009 82.9133 63.9864 82.948C63.9638 82.9827 63.9243 83 63.8678 83H61.4097C61.2967 83 61.2006 82.9422 61.1215 82.8266L52.5606 69.5118C52.5493 69.4771 52.5154 69.4598 52.4588 69.4598C52.4136 69.4598 52.3741 69.4771 52.3402 69.5118L48.6276 73.2393C48.492 73.3779 48.4242 73.5282 48.4242 73.69V82.8266C48.4242 82.9422 48.3677 83 48.2547 83H46.1695C46.0565 83 46 82.9422 46 82.8266Z" fill="white"/>
<path d="M6.63727 48.4362C4.49441 47.2837 3.22733 45.7755 2.98137 44.082C2.76149 42.5627 3.40248 41.1471 4.14037 40.4171C4.90807 39.6575 6.48074 38.9386 8.12795 39.1461C9.52919 39.324 10.7441 40.1207 11.7466 41.5103L11.7727 41.5474L13.8447 40.8433L13.8037 40.7803C12.0447 38.0492 9.89068 37.2488 8.39627 37.0561C5.86584 36.7337 3.71553 37.8602 2.64223 38.9274C1.61366 39.9465 0.532917 41.9883 0.883228 44.3859C1.12546 46.046 2.14286 48.4177 5.62733 50.2927C11.4112 53.4055 12.8795 54.5283 12.8795 57.604C12.8795 58.7639 12.354 59.8904 11.441 60.6982C10.3863 61.6284 8.94037 62.036 7.3677 61.847C3.79752 61.4171 2.29193 58.1154 2.02733 57.4595L2.00497 57.4076L0 58.0895L0.0223593 58.145C0.357763 59.0122 2.28447 63.3589 7.11428 63.9407C7.44969 63.9815 7.78509 64 8.11677 64C9.93168 64 11.5677 63.4034 12.846 62.2769C14.2137 61.0688 15 59.3679 15 57.6077C14.9963 53.135 12.2832 51.4748 6.63727 48.4362Z" fill="white"/>
<path d="M32.7658 15.0345L37.7838 4.76036L43.0199 15.1194H32.7269L32.7658 15.0345ZM37.815 0L24 27H26.731L31.6049 17.3389H44.1458L49.2417 27H52L37.815 0Z" fill="white"/>
</svg>
