<svg width="1501" height="50" viewBox="0 0 1501 50" fill="none" xmlns="http://www.w3.org/2000/svg">
<path d="M34.8535 48.6897H30.4354L30.4442 4.36919H4.28086V48.6897H0V0H34.8535V48.6897Z" fill="#FF001C"/>
<path d="M34.8535 48.6897H30.4354L30.4442 4.36919H4.28086V48.6897H0V0H34.8535V48.6897Z" fill="#FF001C"/>
<path d="M204.016 0C192.687 0 183.471 9.21647 183.471 20.5445C183.471 31.8725 192.687 41.089 204.016 41.089C215.345 41.089 224.562 31.8725 224.562 20.5445C224.562 9.21647 215.345 0 204.016 0ZM220.316 20.5445C220.316 29.5308 213.003 36.8437 204.016 36.8437C195.029 36.8437 187.716 29.5308 187.716 20.5445C187.716 11.5582 195.029 4.24525 204.016 4.24525C213.003 4.24967 220.316 11.5582 220.316 20.5445Z" fill="#FF001C"/>
<path d="M218.338 45.6352H190.829V49.3979H218.338V45.6352Z" fill="#FF001C"/>
<path d="M204.016 0C192.687 0 183.471 9.21647 183.471 20.5445C183.471 31.8725 192.687 41.089 204.016 41.089C215.345 41.089 224.562 31.8725 224.562 20.5445C224.562 9.21647 215.345 0 204.016 0ZM220.316 20.5445C220.316 29.5308 213.003 36.8437 204.016 36.8437C195.029 36.8437 187.716 29.5308 187.716 20.5445C187.716 11.5582 195.029 4.24525 204.016 4.24525C213.003 4.24967 220.316 11.5582 220.316 20.5445Z" fill="#FF001C"/>
<path d="M218.338 45.6352H190.829V49.3979H218.338V45.6352Z" fill="#FF001C"/>
<path d="M378.858 15.9051L374.768 17.5652V49.3668H378.858V15.9051Z" fill="#FF001C"/>
<path d="M380.412 3.61664C380.412 1.62461 378.788 0 376.795 0C374.803 0 373.179 1.62019 373.179 3.61664C373.179 5.60868 374.803 7.23329 376.795 7.23329C378.788 7.23329 380.412 5.6131 380.412 3.61664Z" fill="#FF001C"/>
<path d="M378.858 15.9051L374.768 17.5652V49.3668H378.858V15.9051Z" fill="#FF001C"/>
<path d="M380.412 3.61664C380.412 1.62461 378.788 0 376.795 0C374.803 0 373.179 1.62019 373.179 3.61664C373.179 5.60868 374.803 7.23329 376.795 7.23329C378.788 7.23329 380.412 5.6131 380.412 3.61664Z" fill="#FF001C"/>
<path d="M573.339 50H578.182L553.28 0L529.029 50H533.819L553.227 8.80921L562.413 27.9947H553.325V32.1115H564.392L573.339 50Z" fill="#FF001C"/>
<path d="M573.339 50H578.182L553.28 0L529.029 50H533.819L553.227 8.80921L562.413 27.9947H553.325V32.1115H564.392L573.339 50Z" fill="#FF001C"/>
<path d="M738.986 21.1047C735.051 18.9755 732.731 16.1955 732.279 13.0658C731.872 10.2636 733.054 7.65185 734.404 6.30613C735.812 4.90728 738.703 3.57483 741.722 3.95995C744.29 4.28753 746.525 5.75723 748.367 8.32473L748.416 8.39112L752.219 7.08966L752.143 6.97458C748.916 1.93252 744.967 0.453989 742.218 0.104277C737.579 -0.493333 733.63 1.58723 731.66 3.5527C729.769 5.43407 727.791 9.20565 728.428 13.628C728.871 16.6913 730.743 21.0693 737.131 24.5266C747.747 30.2725 750.439 32.3442 750.439 38.0149C750.439 40.153 749.474 42.2335 747.796 43.7209C745.861 45.4341 743.21 46.191 740.323 45.8413C733.771 45.0489 731.009 38.9533 730.522 37.7404L730.482 37.643L726.799 38.9002L726.839 39.0064C727.454 40.6045 730.987 48.6257 739.854 49.697C740.469 49.7723 741.089 49.8077 741.696 49.8077C745.025 49.8077 748.026 48.7054 750.373 46.6249C752.883 44.3982 754.326 41.2596 754.326 38.006C754.33 29.7767 749.35 26.7134 738.986 21.1047Z" fill="#FF001C"/>
<path d="M738.986 21.1047C735.051 18.9755 732.731 16.1955 732.279 13.0658C731.872 10.2636 733.054 7.65185 734.404 6.30613C735.812 4.90728 738.703 3.57483 741.722 3.95995C744.29 4.28753 746.525 5.75723 748.367 8.32473L748.416 8.39112L752.219 7.08966L752.143 6.97458C748.916 1.93252 744.967 0.453989 742.218 0.104277C737.579 -0.493333 733.63 1.58723 731.66 3.5527C729.769 5.43407 727.791 9.20565 728.428 13.628C728.871 16.6913 730.743 21.0693 737.131 24.5266C747.747 30.2725 750.439 32.3442 750.439 38.0149C750.439 40.153 749.474 42.2335 747.796 43.7209C745.861 45.4341 743.21 46.191 740.323 45.8413C733.771 45.0489 731.009 38.9533 730.522 37.7404L730.482 37.643L726.799 38.9002L726.839 39.0064C727.454 40.6045 730.987 48.6257 739.854 49.697C740.469 49.7723 741.089 49.8077 741.696 49.8077C745.025 49.8077 748.026 48.7054 750.373 46.6249C752.883 44.3982 754.326 41.2596 754.326 38.006C754.33 29.7767 749.35 26.7134 738.986 21.1047Z" fill="#FF001C"/>
<path d="M949.9 22.1293C948.74 9.51305 938.682 0 926.508 0C920.031 0 914.028 2.61177 909.605 7.35723C905.311 11.9699 902.943 18.0434 902.943 24.4666C902.943 38.1895 913.293 48.9376 926.503 48.9376L927.127 48.9287V44.8428L926.503 44.8517C915.591 44.8517 907.361 36.0868 907.361 24.4666C907.361 12.8464 915.591 4.08146 926.503 4.08146C936.473 4.08146 944.45 11.7087 945.473 22.2134L945.513 22.6206H949.94L949.9 22.1293Z" fill="#FF001C"/>
<path d="M949.9 22.1293C948.74 9.51305 938.682 0 926.508 0C920.031 0 914.028 2.61177 909.605 7.35723C905.311 11.9699 902.943 18.0434 902.943 24.4666C902.943 38.1895 913.293 48.9376 926.503 48.9376L927.127 48.9287V44.8428L926.503 44.8517C915.591 44.8517 907.361 36.0868 907.361 24.4666C907.361 12.8464 915.591 4.08146 926.503 4.08146C936.473 4.08146 944.45 11.7087 945.473 22.2134L945.513 22.6206H949.94L949.9 22.1293Z" fill="#FF001C"/>
<path d="M1142.87 50H1147.71L1122.81 0L1098.56 50H1103.35L1122.75 8.81365L1131.94 27.9947H1122.86V32.1116H1133.92L1142.87 50Z" fill="#FF001C"/>
<path d="M1142.87 50H1147.71L1122.81 0L1098.56 50H1103.35L1122.75 8.81365L1131.94 27.9947H1122.86V32.1116H1133.92L1142.87 50Z" fill="#FF001C"/>
<path d="M1318.26 2.85083C1315.38 1.01373 1311.38 0 1307.01 0H1296.33V18.4949H1300.62V3.99291H1307.47C1313.1 3.99291 1319.67 6.60027 1319.67 13.9398C1319.67 23.05 1310.63 23.7539 1307.87 23.7539H1296.33V48.6808H1300.62V27.7468H1308.2C1315.49 27.7468 1323.99 24.1478 1323.99 14.0017C1323.99 9.03052 1322.06 5.27668 1318.26 2.85083Z" fill="#FF001C"/>
<path d="M1318.26 2.85083C1315.38 1.01373 1311.38 0 1307.01 0H1296.33V18.4949H1300.62V3.99291H1307.47C1313.1 3.99291 1319.67 6.60027 1319.67 13.9398C1319.67 23.05 1310.63 23.7539 1307.87 23.7539H1296.33V48.6808H1300.62V27.7468H1308.2C1315.49 27.7468 1323.99 24.1478 1323.99 14.0017C1323.99 9.03052 1322.06 5.27668 1318.26 2.85083Z" fill="#FF001C"/>
<path d="M1500.79 44.6525H1476.77V25.8256H1497.57V21.7928H1476.77V4.03276H1500.78L1500.79 3.46169V0H1472.61V48.6853H1500.79V44.6525Z" fill="#FF001C"/>
<path d="M1500.79 44.6525H1476.77V25.8256H1497.57V21.7928H1476.77V4.03276H1500.78L1500.79 3.46169V0H1472.61V48.6853H1500.79V44.6525Z" fill="#FF001C"/>
</svg>
