<?xml version="1.0" encoding="utf-8"?>
<!-- Generator: Adobe Illustrator 26.0.1, SVG Export Plug-In . SVG Version: 6.00 Build 0)  -->
<svg version="1.1" id="Layer_1" xmlns="http://www.w3.org/2000/svg" xmlns:xlink="http://www.w3.org/1999/xlink" x="0px" y="0px"
	 viewBox="0 0 423.3 524.1" style="enable-background:new 0 0 423.3 524.1;" xml:space="preserve">
<path d="M191.9,327.3c-2.6-28.5-25.3-50-52.8-50c-14.5-0.1-28.3,6-38.2,16.6c-9.7,10.5-15.1,24.3-15,38.7c0,31,23.4,55.3,53.2,55.3
	h1.4v-9.2h-1.4c-24.7,0-43.2-19.8-43.2-46s18.6-46,43.2-46c22.5,0,40.5,17.2,42.8,41l0.1,0.9h10L191.9,327.3z"/>
<polygon points="230.7,170.4 221.4,174.1 221.4,246 230.7,246 "/>
<path d="M234.2,142.6c0-4.5-3.7-8.2-8.2-8.2c-4.5,0-8.2,3.7-8.2,8.2c0,4.5,3.7,8.2,8.2,8.2l0,0C230.5,150.8,234.2,147.1,234.2,142.6
	"/>
<polygon points="178.3,110 168.3,110 168.4,9.9 109.2,9.9 109.2,110 99.6,110 99.6,0 178.3,0 "/>
<path d="M138.9,134.5c-25.6,0-46.4,20.8-46.4,46.4c0,25.6,20.8,46.4,46.4,46.4c25.6,0,46.4-20.8,46.4-46.4c0,0,0,0,0,0
	C185.3,155.2,164.6,134.5,138.9,134.5 M175.8,180.9c0,20.3-16.5,36.8-36.8,36.8s-36.8-16.5-36.8-36.8c0-20.3,16.5-36.8,36.8-36.8
	c0,0,0,0,0,0C159.3,144.1,175.7,160.5,175.8,180.9"/>
<rect x="109.2" y="237.6" width="62.1" height="8.5"/>
<path d="M342.8,205.2l20.2,40.4H374l-56.2-112.9l-54.8,112.9h10.8l19.3-40.4H342.8z M297.7,195.5l19.9-43l20.8,43.3h-40.8
	L297.7,195.5z"/>
<path d="M27.5,324c-8.9-4.8-14.1-11.1-15.1-18.2c-0.8-5.6,1-11.2,4.8-15.3c4.5-4.1,10.5-6,16.5-5.3c5.8,0.7,10.9,4.1,15,9.9l0.1,0.1
	l8.6-2.9l-0.2-0.3c-7.3-11.4-16.2-14.7-22.4-15.5c-8.7-1.1-17.5,1.8-23.9,7.8c-5.8,6.1-8.5,14.4-7.3,22.8c1,6.9,5.2,16.8,19.7,24.6
	c24,13,30.1,17.7,30.1,30.5c-0.1,5-2.2,9.6-6,12.9c-4.4,3.9-10.4,5.6-16.9,4.8c-14.8-1.8-21-15.6-22.1-18.3l-0.1-0.2L0,364.2
	l0.1,0.2c1.4,3.6,9.4,21.7,29.4,24.1c1.4,0.2,2.8,0.2,4.2,0.2c7.2,0.1,14.2-2.4,19.6-7.2c5.6-4.9,8.9-12,8.9-19.5
	C62.2,343.6,50.9,336.7,27.5,324"/>
<path d="M213.4,436.5l20.2,40.4h10.9l-56.2-113l-54.8,113h10.8l19.4-40.4H213.4z M168.2,426.9l19.9-43l20.8,43.3h-40.8L168.2,426.9z
	"/>
<path d="M320.4,420.6c-6.5-4.2-15.5-6.4-25.4-6.4h-24.1v110h9.7v-101H296c12.7,0,27.5,5.9,27.5,22.5c0,20.6-20.4,22.2-26.7,22.2
	h-4.2v9h5c16.5,0,35.7-8.1,35.7-31C333.3,434.5,329,426,320.4,420.6"/>
<polygon points="423.3,524.1 361.1,524.1 361.1,476.3 371.3,467 361.1,458.3 361.1,414.1 423.3,414.1 423.3,423.6 370.6,423.6 
	370.6,454 385.6,466.8 370.6,480.5 370.6,514.6 423.3,514.6 "/>
</svg>
