<?xml version="1.0" encoding="utf-8"?>
<!-- Generator: Adobe Illustrator 25.4.1, SVG Export Plug-In . SVG Version: 6.00 Build 0)  -->
<svg version="1.1" id="Content" xmlns="http://www.w3.org/2000/svg" xmlns:xlink="http://www.w3.org/1999/xlink" x="0px" y="0px"
	 viewBox="0 0 515.4 421.8" style="enable-background:new 0 0 515.4 421.8;" xml:space="preserve">
<g>
	<polygon points="264,37.7 254.8,41.5 254.8,113.3 264,113.3 	"/>
	<g>
		<path d="M267.5,10c0-4.5-3.7-8.2-8.2-8.2s-8.2,3.7-8.2,8.2s3.7,8.2,8.2,8.2C263.9,18.2,267.5,14.5,267.5,10"/>
		<path d="M144.8,210.2c-8.9-4.8-14.1-11.1-15.1-18.2c-0.9-6.3,1.8-12.2,4.8-15.3c3.2-3.2,9.7-6.2,16.5-5.3c5.8,0.7,10.9,4.1,15,9.9
			l0.1,0.1l8.6-2.9l-0.2-0.3c-7.3-11.4-16.2-14.7-22.4-15.5c-10.5-1.4-19.4,3.4-23.9,7.8c-4.3,4.3-8.7,12.8-7.3,22.8
			c1,6.9,5.2,16.8,19.7,24.6c24,13,30.1,17.7,30.1,30.5c0,4.8-2.2,9.5-6,12.9c-4.4,3.9-10.4,5.6-16.9,4.8
			c-14.8-1.8-21-15.6-22.1-18.3l-0.1-0.2l-8.3,2.8l0.1,0.2c1.4,3.6,9.4,21.7,29.4,24.2c1.4,0.2,2.8,0.3,4.2,0.3
			c7.5,0,14.3-2.5,19.6-7.2c5.7-5,8.9-12.1,8.9-19.5C179.5,229.8,168.2,222.9,144.8,210.2"/>
		<polygon points="515.4,412.7 461.2,412.7 461.2,370.1 508.1,370.1 508.1,361 461.2,361 461.2,320.9 515.4,320.9 515.4,319.6 
			515.4,311.8 451.7,311.8 451.7,421.8 515.4,421.8 		"/>
		<path d="M397.1,318.2c-6.5-4.2-15.5-6.4-25.4-6.4h-24.1v53.7v1.3v7.7v47.3h9.7v-101h15.5c12.7,0,27.5,5.9,27.5,22.5
			c0,20.6-20.4,22.2-26.6,22.2h-4.3v9h5c16.5,0,35.7-8.1,35.7-31C410.1,332.2,405.7,323.7,397.1,318.2"/>
		<path d="M381.8,72.5l20.2,40.4h10.9L356.7,0l-54.8,112.9h10.8L332,72.5H381.8z M336.6,62.9l19.9-43l20.8,43.3h-40.8L336.6,62.9z"
			/>
		<path d="M295.5,241.6l-6.1-6.5l-1.1,1c-7.2,6.5-17,10.3-26.3,10.3c-20.5,0-35.9-16.1-35.9-37.4c0-21,15.5-37.4,35.4-37.4
			c8.6,0,15.7,2.3,23.5,7.7l1.2,0.9l5.5-7.3l-1.1-1c-7-6-17.6-9.4-29.2-9.4c-25,0-45.3,20.9-45.3,46.5c0,26.1,20.2,46.5,45.9,46.5
			c12.4,0,24.6-4.8,32.5-12.8L295.5,241.6z"/>
		<rect x="228.6" y="265.3" width="62.1" height="8.5"/>
		<path d="M160.7,1.6c-25.6,0-46.4,20.8-46.4,46.4s20.8,46.4,46.4,46.4s46.4-20.8,46.4-46.4S186.2,1.6,160.7,1.6 M197.5,48
			c0,20.3-16.5,36.8-36.8,36.8S123.9,68.3,123.9,48s16.5-36.8,36.8-36.8C181,11.2,197.5,27.7,197.5,48"/>
		<rect x="130.9" y="104.7" width="62.1" height="8.5"/>
		<path d="M284.1,381.3l20.2,40.4h10.9L259,308.8l-54.8,112.9H215l19.3-40.4H284.1z M239,371.7l19.9-43l20.8,43.3h-40.8L239,371.7z"
			/>
		<polygon points="78.7,113.2 68.7,113.2 68.7,13.1 9.6,13.1 9.6,113.2 0,113.2 0,3.2 78.7,3.2 		"/>
	</g>
</g>
</svg>
