<svg width="25" height="15" viewBox="0 0 25 15" fill="none" xmlns="http://www.w3.org/2000/svg">
<path d="M14.1042 7.10416C14.1097 8.98098 13.3702 10.7833 12.0479 12.1153C10.7257 13.4473 8.92891 14.2 7.0521 14.2083C5.1753 14.2 3.37849 13.4473 2.05626 12.1153C0.734039 10.7833 -0.00550742 8.98098 3.08836e-05 7.10416C-0.00550742 5.22734 0.734039 3.42504 2.05626 2.09305C3.37849 0.76106 5.1753 0.00827195 7.0521 0C8.92891 0.00827195 10.7257 0.76106 12.0479 2.09305C13.3702 3.42504 14.1097 5.22734 14.1042 7.10416ZM21.8333 7.10416C21.8333 10.7917 20.2604 13.7916 18.3125 13.7916C16.3646 13.7916 14.7813 10.7917 14.7813 7.10416C14.7813 3.41666 16.3646 0.416666 18.3125 0.416666C20.2604 0.416666 21.8333 3.41666 21.8333 7.10416ZM25 7.10416C25 10.4062 24.4479 13.0937 23.7604 13.0937C23.0729 13.0937 22.5208 10.4062 22.5208 7.10416C22.5208 3.80208 23.0729 1.11458 23.7604 1.11458C24.4479 1.11458 25 3.80208 25 7.10416Z" fill="black"/>
</svg>
