<svg width="25" height="21" viewBox="0 0 25 21" fill="none" xmlns="http://www.w3.org/2000/svg">
<path d="M24.951 2.42032C24.0151 2.83241 23.0235 3.10442 22.0083 3.22761C23.0772 2.58516 23.8775 1.57766 24.2615 0.391151C23.2708 0.969276 22.1729 1.39011 21.0042 1.62448C20.2331 0.799932 19.2113 0.253048 18.0975 0.0687568C16.9838 -0.115535 15.8403 0.0730787 14.8447 0.605308C13.8491 1.13754 13.0571 1.9836 12.5917 3.01211C12.1263 4.04063 12.0135 5.19404 12.2708 6.29323C8.01042 6.09219 4.23646 4.04532 1.70833 0.953651C1.24874 1.73471 1.00902 2.62555 1.01458 3.53178C1.01458 5.31303 1.92083 6.87865 3.29375 7.79844C2.48006 7.77254 1.68435 7.55254 0.972917 7.15678V7.21928C0.972455 8.40302 1.38153 9.55046 2.13074 10.4669C2.87994 11.3834 3.92314 12.0125 5.08333 12.2474C4.33156 12.4488 3.54418 12.4791 2.77917 12.3359C3.10846 13.3547 3.74757 14.2453 4.60731 14.8833C5.46705 15.5214 6.50453 15.8752 7.575 15.8953C5.76201 17.3182 3.52341 18.0904 1.21875 18.088C0.8125 18.088 0.407292 18.0641 0 18.0182C2.3497 19.5227 5.08178 20.3214 7.87187 20.3193C17.3021 20.3193 22.4531 12.5109 22.4531 5.75157C22.4531 5.53282 22.4531 5.31407 22.4375 5.09532C23.4437 4.37122 24.3117 3.47221 25 2.44115L24.951 2.42032Z" fill="black"/>
</svg>
