<svg width="197" height="200" viewBox="0 0 197 200" fill="none" xmlns="http://www.w3.org/2000/svg">
<path d="M32.6021 46.3506H28.4694L28.4777 4.83894H4.00434V46.3506H0V0.746639H32.6021V46.3506Z" fill="black"/>
<path d="M67.1626 0C56.5658 0 47.9442 8.63238 47.9442 19.2425C47.9442 29.8526 56.5658 38.485 67.1626 38.485C77.7594 38.485 86.381 29.8526 86.381 19.2425C86.381 8.63238 77.7594 0 67.1626 0ZM82.4098 19.2425C82.4098 27.6593 75.5688 34.5088 67.1626 34.5088C58.7564 34.5088 51.9154 27.6593 51.9154 19.2425C51.9154 10.8257 58.7564 3.97621 67.1626 3.97621C75.5688 3.98035 82.4098 10.8257 82.4098 19.2425Z" fill="black"/>
<path d="M80.5592 42.7431H54.827V46.2673H80.5592V42.7431Z" fill="black"/>
<path d="M109.824 15.034L105.998 16.5888V46.3751H109.824V15.034Z" fill="black"/>
<path d="M111.277 3.5243C111.277 1.65851 109.758 0.136857 107.894 0.136857C106.031 0.136857 104.511 1.65436 104.511 3.5243C104.511 5.39009 106.031 6.91175 107.894 6.91175C109.758 6.91175 111.277 5.39423 111.277 3.5243Z" fill="black"/>
<path d="M86.1539 107.826H90.6842L67.391 60.9948L44.7066 107.826H49.1872L67.3413 69.2458L75.9339 87.2154H67.4325V91.0713H77.785L86.1539 107.826Z" fill="black"/>
<path d="M14.2285 138.64C10.5472 136.646 8.37728 134.042 7.9549 131.111C7.57393 128.486 8.67957 126.04 9.94257 124.78C11.2594 123.469 13.9635 122.221 16.7876 122.582C19.1894 122.889 21.2806 124.265 23.0033 126.67L23.0489 126.732L26.606 125.513L26.5356 125.406C23.5168 120.683 19.823 119.298 17.2515 118.971C12.9117 118.411 9.21791 120.36 7.37516 122.201C5.60695 123.963 3.75592 127.495 4.35222 131.637C4.76632 134.507 6.51797 138.607 12.4934 141.845C22.4236 147.227 24.9413 149.168 24.9413 154.479C24.9413 156.481 24.0385 158.43 22.4691 159.823C20.6595 161.428 18.179 162.137 15.4791 161.809C9.35041 161.067 6.76643 155.358 6.31092 154.222L6.27365 154.131L2.82834 155.308L2.8656 155.408C3.4412 156.904 6.74572 164.417 15.0401 165.421C15.6157 165.491 16.1955 165.524 16.7628 165.524C19.8768 165.524 22.6844 164.492 24.8792 162.543C27.2271 160.458 28.5771 157.518 28.5771 154.471C28.5812 146.763 23.9226 143.894 14.2285 138.64Z" fill="black"/>
<path d="M85.5196 140.009C84.4347 128.192 75.0263 119.282 63.6386 119.282C57.5803 119.282 51.9651 121.728 47.8282 126.173C43.8115 130.493 41.596 136.182 41.596 142.198C41.596 155.051 51.2777 165.118 63.6345 165.118L64.2183 165.11V161.283L63.6345 161.291C53.4269 161.291 45.7288 153.082 45.7288 142.198C45.7288 131.314 53.4269 123.105 63.6345 123.105C72.96 123.105 80.4221 130.249 81.3786 140.088L81.4159 140.469H85.5569L85.5196 140.009Z" fill="black"/>
<path d="M150.857 156.975C148.165 155.254 144.426 154.305 140.334 154.305H130.342V171.628H134.363V158.045H140.769C146.032 158.045 152.173 160.487 152.173 167.361C152.173 175.894 143.726 176.553 141.138 176.553H130.342V199.901H134.363V180.293H141.448C148.264 180.293 156.219 176.922 156.219 167.419C156.215 162.763 154.41 159.247 150.857 156.975Z" fill="black"/>
<path d="M113.442 200H117.973L94.6796 153.169L71.9952 200H76.4799L94.6299 161.424L103.222 179.389H94.7251V183.245H105.078L113.442 200Z" fill="black"/>
<path d="M196.789 196.128H174.32V178.494H193.774V174.717H174.32V158.082H196.781L196.789 157.547V154.305H170.423V199.905H196.789V196.128Z" fill="black"/>
</svg>
