<svg xmlns="http://www.w3.org/2000/svg"><symbol id="arrow-black-left" viewBox="0 0 13 23"><title>Path</title><path stroke="#000" stroke-width="2" d="M12.016 1.456l-10 10 10 10" fill="none" fill-rule="evenodd"/></symbol><symbol id="arrow-black" viewBox="0 0 13 23"><title>Path</title><path stroke="#000" stroke-width="2" d="M1.016 1.456l10 10-10 10" fill="none" fill-rule="evenodd"/></symbol><symbol fill="none" id="arrow-large" viewBox="0 0 150 47"><title>arrow-large</title><path d="M150 23.5L110 .406v46.188L150 23.5zm-150 4h114v-8H0v8z" fill="#fff"/></symbol><symbol id="arrow-swhite-left" viewBox="0 0 13 22"><title>Path</title><path d="M12 1L2 11l10 10" stroke="#FFF" stroke-width="2" fill="none" fill-rule="evenodd"/></symbol><symbol id="arrow-swhite" viewBox="0 0 13 22"><title>Path</title><path d="M1 1l10 10L1 21" stroke="#FFF" stroke-width="2" fill="none" fill-rule="evenodd"/></symbol><symbol id="arrow-white-left" viewBox="0 0 20 15"><title>arrow-white-left</title><path d="M19 7.334H1.919M6.126 1L1 7.37l5.126 6.13" stroke="#FFF" stroke-width="1.5" fill="none" fill-rule="evenodd"/></symbol><symbol id="arrow-white" viewBox="0 0 19 14"><title>arrow-white</title><path d="M0 7.334h17.081M12.874 1L18 7.37l-5.126 6.13" stroke="#FFF" stroke-width="1.5" fill="none" fill-rule="evenodd"/></symbol><symbol id="facebook" viewBox="0 0 24 24"><title>Facebook icon</title><path d="M22.676 0H1.324C.593 0 0 .593 0 1.324v21.352C0 23.408.593 24 1.324 24h11.494v-9.294H9.689v-3.621h3.129V8.41c0-3.099 1.894-4.785 4.659-4.785 1.325 0 2.464.097 2.796.141v3.24h-1.921c-1.5 0-1.792.721-1.792 1.771v2.311h3.584l-.465 3.63H16.56V24h6.115c.733 0 1.325-.592 1.325-1.324V1.324C24 .593 23.408 0 22.676 0"/></symbol><symbol id="icon-close" viewBox="0 0 24 24"><title>Group</title><path d="M2 2l7 7m3 3l10 10m0-20L2 22" stroke="#000" stroke-width="2" fill="none" fill-rule="evenodd" stroke-linecap="square"/></symbol><symbol fill="none" id="icon-logo" viewBox="0 0 22 28"><title>icon-logo</title><path d="M22 28h-2.095V1.867H2.095V28H0V0h22v28z" fill="#fff"/></symbol><symbol fill="none" id="icon-open" viewBox="0 0 24 24"><title>icon-open</title><path d="M9 11v2H0v-2h9zm4-11h-2v24h2V13h11v-2H13V0z" fill="currentColor"/></symbol><symbol id="icon-sound-off" viewBox="419.5 502.74 25 18.519"><title>icon-sound-off</title><path d="M423.204 508.296H419.5v7.408h3.704l7.408 5.556h1.852v-18.52h-1.852l-7.408 5.556zm21.296.926l-1.852-1.852-2.778 2.778-2.777-2.778-1.823 1.838 2.749 2.792-2.778 2.777 1.852 1.853 2.777-2.778 2.778 2.778 1.852-1.853-2.778-2.777 2.778-2.778z" fill="#fff"/></symbol><symbol id="icon-sound" viewBox="403.5 502.385 25 19.23"><title>icon-sound</title><path d="M407.346 508.154H403.5v7.692h3.846l7.692 5.77h1.923v-19.23h-1.923l-7.692 5.768zm12.335 1.126a.963.963 0 00-1.36 1.36 1.922 1.922 0 010 2.719.963.963 0 001.36 1.36 3.846 3.846 0 000-5.439zm2.72-2.72a.963.963 0 00-1.36 1.36 5.77 5.77 0 010 8.159.963.963 0 001.36 1.36 7.693 7.693 0 000-10.879zm2.719-2.719a.963.963 0 00-1.36 1.36 9.615 9.615 0 010 13.598.963.963 0 001.36 1.36c4.506-4.507 4.506-11.812 0-16.318z" fill="#fff"/></symbol><symbol id="instagram" viewBox="0 0 1792 1792"><title>instagram</title><path d="M1152 896q0-106-75-181t-181-75-181 75-75 181 75 181 181 75 181-75 75-181zm138 0q0 164-115 279t-279 115-279-115-115-279 115-279 279-115 279 115 115 279zm108-410q0 38-27 65t-65 27-65-27-27-65 27-65 65-27 65 27 27 65zM896 266q-7 0-76.5-.5t-105.5 0-96.5 3-103 10T443 297q-50 20-88 58t-58 88q-11 29-18.5 71.5t-10 103-3 96.5 0 105.5.5 76.5-.5 76.5 0 105.5 3 96.5 10 103T297 1349q20 50 58 88t88 58q29 11 71.5 18.5t103 10 96.5 3 105.5 0 76.5-.5 76.5.5 105.5 0 96.5-3 103-10 71.5-18.5q50-20 88-58t58-88q11-29 18.5-71.5t10-103 3-96.5 0-105.5-.5-76.5.5-76.5 0-105.5-3-96.5-10-103T1495 443q-20-50-58-88t-88-58q-29-11-71.5-18.5t-103-10-96.5-3-105.5 0-76.5.5zm768 630q0 229-5 317-10 208-124 322t-322 124q-88 5-317 5t-317-5q-208-10-322-124t-124-322q-5-88-5-317t5-317q10-208 124-322t322-124q88-5 317-5t317 5q208 10 322 124t124 322q5 88 5 317z"/></symbol><symbol id="twitter" viewBox="0 0 24 24"><title>Twitter icon</title><path d="M23.954 4.569a10 10 0 01-2.825.775 4.958 4.958 0 002.163-2.723c-.951.555-2.005.959-3.127 1.184a4.92 4.92 0 00-8.384 4.482C7.691 8.094 4.066 6.13 1.64 3.161a4.822 4.822 0 00-.666 2.475c0 1.71.87 3.213 2.188 4.096a4.904 4.904 0 01-2.228-.616v.061a4.923 4.923 0 003.946 4.827 4.996 4.996 0 01-2.212.085 4.937 4.937 0 004.604 3.417 9.868 9.868 0 01-6.102 2.105c-.39 0-.779-.023-1.17-.067a13.995 13.995 0 007.557 2.209c9.054 0 13.999-7.496 13.999-13.986 0-.209 0-.42-.015-.63a9.936 9.936 0 002.46-2.548l-.047-.02z"/></symbol><symbol id="youtube" viewBox="0 0 24 24"><title>YouTube icon</title><path class="a" d="M23.495 6.205a3.007 3.007 0 00-2.088-2.088c-1.87-.501-9.396-.501-9.396-.501s-7.507-.01-9.396.501A3.007 3.007 0 00.527 6.205a31.247 31.247 0 00-.522 5.805 31.247 31.247 0 00.522 5.783 3.007 3.007 0 002.088 2.088c1.868.502 9.396.502 9.396.502s7.506 0 9.396-.502a3.007 3.007 0 002.088-2.088 31.247 31.247 0 00.5-5.783 31.247 31.247 0 00-.5-5.805zM9.609 15.601V8.408l6.264 3.602z"/></symbol></svg>