
<svg version="1.1" id="Layer_1" xmlns="http://www.w3.org/2000/svg" xmlns:xlink="http://www.w3.org/1999/xlink" x="0px" y="0px"
	 width="25px" height="19.23px" viewBox="403.5 502.385 25 19.23" enable-background="new 403.5 502.385 25 19.23"
	 xml:space="preserve">
<path d="M407.346,508.154H403.5v7.692h3.846l7.692,5.77h1.923v-19.23h-1.923L407.346,508.154z M419.681,509.28
	c-0.375-0.375-0.984-0.375-1.36,0s-0.375,0.984,0,1.36c0.751,0.751,0.751,1.968,0,2.719c-0.375,0.376-0.375,0.984,0,1.36
	c0.375,0.375,0.984,0.375,1.36,0C421.183,513.218,421.183,510.782,419.681,509.28z M422.401,506.56c-0.375-0.375-0.984-0.375-1.36,0
	s-0.375,0.984,0,1.36c2.253,2.253,2.253,5.906,0,8.159c-0.375,0.376-0.375,0.984,0,1.36c0.375,0.375,0.984,0.375,1.36,0
	C425.405,514.435,425.405,509.565,422.401,506.56z M425.12,503.841c-0.375-0.375-0.984-0.375-1.36,0
	c-0.375,0.375-0.375,0.984,0,1.36c3.755,3.755,3.755,9.843,0,13.598c-0.375,0.376-0.375,0.984,0,1.36
	c0.375,0.375,0.984,0.375,1.36,0C429.626,515.652,429.626,508.347,425.12,503.841z" fill="white"/>
</svg>
